<mxfile host="app.diagrams.net" modified="2023-04-07T16:15:54.588Z" agent="Mozilla/5.0 (X11; Ubuntu; Linux x86_64; rv:109.0) Gecko/20100101 Firefox/111.0" etag="G7b2vGjwvQJCBUKdys5U" version="21.1.5" type="github">
  <diagram name="Page-1" id="DNa9uATd9qYWwBV_UxL_">
    <mxGraphModel dx="1135" dy="1763" grid="1" gridSize="10" guides="1" tooltips="1" connect="1" arrows="1" fold="1" page="1" pageScale="1" pageWidth="850" pageHeight="1100" math="0" shadow="0">
      <root>
        <mxCell id="0" />
        <mxCell id="1" parent="0" />
        <mxCell id="O4BCsCqUHJFsde2Ogw4A-1" value="" style="shape=mxgraph.cisco.routers.iad_router;sketch=0;html=1;pointerEvents=1;dashed=0;fillColor=#036897;strokeColor=#ffffff;strokeWidth=2;verticalLabelPosition=bottom;verticalAlign=top;align=center;outlineConnect=0;" vertex="1" parent="1">
          <mxGeometry x="435" y="350" width="78" height="53" as="geometry" />
        </mxCell>
        <mxCell id="O4BCsCqUHJFsde2Ogw4A-5" value="" style="endArrow=none;html=1;rounded=0;entryX=0.5;entryY=0;entryDx=0;entryDy=0;entryPerimeter=0;" edge="1" parent="1" target="O4BCsCqUHJFsde2Ogw4A-1">
          <mxGeometry width="50" height="50" relative="1" as="geometry">
            <mxPoint x="474" y="160" as="sourcePoint" />
            <mxPoint x="440" y="340" as="targetPoint" />
            <Array as="points">
              <mxPoint x="474" y="300" />
              <mxPoint x="474" y="320" />
            </Array>
          </mxGeometry>
        </mxCell>
        <mxCell id="O4BCsCqUHJFsde2Ogw4A-6" value="" style="endArrow=none;html=1;rounded=0;exitX=1;exitY=0.5;exitDx=0;exitDy=0;exitPerimeter=0;" edge="1" parent="1" source="O4BCsCqUHJFsde2Ogw4A-1">
          <mxGeometry width="50" height="50" relative="1" as="geometry">
            <mxPoint x="484" y="290" as="sourcePoint" />
            <mxPoint x="730" y="377" as="targetPoint" />
          </mxGeometry>
        </mxCell>
        <mxCell id="O4BCsCqUHJFsde2Ogw4A-8" value="&lt;font style=&quot;font-size: 9px;&quot;&gt;eth0&lt;/font&gt;" style="text;html=1;align=center;verticalAlign=middle;resizable=0;points=[];autosize=1;strokeColor=none;fillColor=none;" vertex="1" parent="1">
          <mxGeometry x="465" y="330" width="40" height="30" as="geometry" />
        </mxCell>
        <mxCell id="O4BCsCqUHJFsde2Ogw4A-10" value="&lt;font style=&quot;font-size: 9px;&quot;&gt;eth1&lt;/font&gt;" style="text;html=1;align=center;verticalAlign=middle;resizable=0;points=[];autosize=1;strokeColor=none;fillColor=none;" vertex="1" parent="1">
          <mxGeometry x="505" y="350" width="40" height="30" as="geometry" />
        </mxCell>
        <mxCell id="O4BCsCqUHJFsde2Ogw4A-11" value="" style="endArrow=none;html=1;rounded=0;" edge="1" parent="1">
          <mxGeometry width="50" height="50" relative="1" as="geometry">
            <mxPoint x="170" y="376" as="sourcePoint" />
            <mxPoint x="435" y="376.26" as="targetPoint" />
          </mxGeometry>
        </mxCell>
        <mxCell id="O4BCsCqUHJFsde2Ogw4A-12" value="&lt;font style=&quot;font-size: 9px;&quot;&gt;eth2&lt;/font&gt;" style="text;html=1;align=center;verticalAlign=middle;resizable=0;points=[];autosize=1;strokeColor=none;fillColor=none;" vertex="1" parent="1">
          <mxGeometry x="405" y="350" width="40" height="30" as="geometry" />
        </mxCell>
        <mxCell id="O4BCsCqUHJFsde2Ogw4A-13" value="RED-SCR" style="text;html=1;align=center;verticalAlign=middle;resizable=0;points=[];autosize=1;strokeColor=none;fillColor=none;labelBackgroundColor=default;" vertex="1" parent="1">
          <mxGeometry x="434" y="375" width="80" height="30" as="geometry" />
        </mxCell>
        <mxCell id="O4BCsCqUHJFsde2Ogw4A-15" value="172.16.120.1/30" style="text;html=1;align=center;verticalAlign=middle;resizable=0;points=[];autosize=1;strokeColor=none;fillColor=none;" vertex="1" parent="1">
          <mxGeometry x="465" y="317" width="110" height="30" as="geometry" />
        </mxCell>
        <mxCell id="O4BCsCqUHJFsde2Ogw4A-16" value="172.16.120.6/30" style="text;html=1;align=center;verticalAlign=middle;resizable=0;points=[];autosize=1;strokeColor=none;fillColor=none;" vertex="1" parent="1">
          <mxGeometry x="502" y="375" width="110" height="30" as="geometry" />
        </mxCell>
        <mxCell id="O4BCsCqUHJFsde2Ogw4A-17" value="172.16.101.30/27" style="text;html=1;align=center;verticalAlign=middle;resizable=0;points=[];autosize=1;strokeColor=none;fillColor=none;" vertex="1" parent="1">
          <mxGeometry x="320" y="375" width="120" height="30" as="geometry" />
        </mxCell>
        <mxCell id="O4BCsCqUHJFsde2Ogw4A-19" value="" style="shape=mxgraph.cisco.routers.iad_router;sketch=0;html=1;pointerEvents=1;dashed=0;fillColor=#036897;strokeColor=#ffffff;strokeWidth=2;verticalLabelPosition=bottom;verticalAlign=top;align=center;outlineConnect=0;" vertex="1" parent="1">
          <mxGeometry x="436" y="110" width="78" height="53" as="geometry" />
        </mxCell>
        <mxCell id="O4BCsCqUHJFsde2Ogw4A-20" value="172.16.120.2/30" style="text;html=1;align=center;verticalAlign=middle;resizable=0;points=[];autosize=1;strokeColor=none;fillColor=none;" vertex="1" parent="1">
          <mxGeometry x="465" y="176" width="110" height="30" as="geometry" />
        </mxCell>
        <mxCell id="O4BCsCqUHJFsde2Ogw4A-21" value="&lt;font style=&quot;font-size: 9px;&quot;&gt;eth1&lt;/font&gt;" style="text;html=1;align=center;verticalAlign=middle;resizable=0;points=[];autosize=1;strokeColor=none;fillColor=none;" vertex="1" parent="1">
          <mxGeometry x="465" y="160" width="40" height="30" as="geometry" />
        </mxCell>
        <mxCell id="O4BCsCqUHJFsde2Ogw4A-22" value="" style="endArrow=none;html=1;rounded=0;entryX=0.5;entryY=0;entryDx=0;entryDy=0;entryPerimeter=0;" edge="1" parent="1">
          <mxGeometry width="50" height="50" relative="1" as="geometry">
            <mxPoint x="474.71" y="-80" as="sourcePoint" />
            <mxPoint x="474.71" y="110" as="targetPoint" />
            <Array as="points">
              <mxPoint x="474.71" y="60" />
              <mxPoint x="474.71" y="80" />
            </Array>
          </mxGeometry>
        </mxCell>
        <mxCell id="O4BCsCqUHJFsde2Ogw4A-23" value="&lt;font style=&quot;font-size: 9px;&quot;&gt;eth0&lt;/font&gt;" style="text;html=1;align=center;verticalAlign=middle;resizable=0;points=[];autosize=1;strokeColor=none;fillColor=none;" vertex="1" parent="1">
          <mxGeometry x="465" y="90" width="40" height="30" as="geometry" />
        </mxCell>
        <mxCell id="O4BCsCqUHJFsde2Ogw4A-24" value="dmz" style="text;html=1;align=center;verticalAlign=middle;resizable=0;points=[];autosize=1;strokeColor=none;fillColor=none;" vertex="1" parent="1">
          <mxGeometry x="357" y="387" width="50" height="30" as="geometry" />
        </mxCell>
        <mxCell id="O4BCsCqUHJFsde2Ogw4A-25" value="rednet" style="text;html=1;align=center;verticalAlign=middle;resizable=0;points=[];autosize=1;strokeColor=none;fillColor=none;" vertex="1" parent="1">
          <mxGeometry x="524" y="387" width="60" height="30" as="geometry" />
        </mxCell>
        <mxCell id="O4BCsCqUHJFsde2Ogw4A-26" value="internet" style="text;html=1;align=center;verticalAlign=middle;resizable=0;points=[];autosize=1;strokeColor=none;fillColor=none;" vertex="1" parent="1">
          <mxGeometry x="418" y="316" width="60" height="30" as="geometry" />
        </mxCell>
        <mxCell id="O4BCsCqUHJFsde2Ogw4A-27" value="rednet" style="text;html=1;align=center;verticalAlign=middle;resizable=0;points=[];autosize=1;strokeColor=none;fillColor=none;" vertex="1" parent="1">
          <mxGeometry x="425" y="176" width="60" height="30" as="geometry" />
        </mxCell>
        <mxCell id="O4BCsCqUHJFsde2Ogw4A-28" value="&lt;font style=&quot;font-size: 9px;&quot;&gt;eth2&lt;/font&gt;" style="text;html=1;align=center;verticalAlign=middle;resizable=0;points=[];autosize=1;strokeColor=none;fillColor=none;" vertex="1" parent="1">
          <mxGeometry x="505" y="110" width="40" height="30" as="geometry" />
        </mxCell>
        <mxCell id="O4BCsCqUHJFsde2Ogw4A-29" value="&lt;font style=&quot;font-size: 9px;&quot;&gt;eth3&lt;/font&gt;" style="text;html=1;align=center;verticalAlign=middle;resizable=0;points=[];autosize=1;strokeColor=none;fillColor=none;" vertex="1" parent="1">
          <mxGeometry x="405" y="110" width="40" height="30" as="geometry" />
        </mxCell>
        <mxCell id="O4BCsCqUHJFsde2Ogw4A-30" value="" style="endArrow=none;html=1;rounded=0;exitX=1;exitY=0.5;exitDx=0;exitDy=0;exitPerimeter=0;" edge="1" parent="1">
          <mxGeometry width="50" height="50" relative="1" as="geometry">
            <mxPoint x="513" y="136.21" as="sourcePoint" />
            <mxPoint x="730" y="136.21" as="targetPoint" />
          </mxGeometry>
        </mxCell>
        <mxCell id="O4BCsCqUHJFsde2Ogw4A-31" value="" style="endArrow=none;html=1;rounded=0;exitX=1;exitY=0.5;exitDx=0;exitDy=0;exitPerimeter=0;" edge="1" parent="1">
          <mxGeometry width="50" height="50" relative="1" as="geometry">
            <mxPoint x="219" y="136.20999999999998" as="sourcePoint" />
            <mxPoint x="436" y="136.20999999999998" as="targetPoint" />
          </mxGeometry>
        </mxCell>
        <mxCell id="O4BCsCqUHJFsde2Ogw4A-32" value="172.16.20.2/30" style="text;html=1;align=center;verticalAlign=middle;resizable=0;points=[];autosize=1;strokeColor=none;fillColor=none;" vertex="1" parent="1">
          <mxGeometry x="504" y="130" width="100" height="30" as="geometry" />
        </mxCell>
        <mxCell id="O4BCsCqUHJFsde2Ogw4A-33" value="10.10.205.253/30" style="text;html=1;align=center;verticalAlign=middle;resizable=0;points=[];autosize=1;strokeColor=none;fillColor=none;" vertex="1" parent="1">
          <mxGeometry x="465" y="70" width="120" height="30" as="geometry" />
        </mxCell>
        <mxCell id="O4BCsCqUHJFsde2Ogw4A-34" value="172.16.220.66/30" style="text;html=1;align=center;verticalAlign=middle;resizable=0;points=[];autosize=1;strokeColor=none;fillColor=none;" vertex="1" parent="1">
          <mxGeometry x="325" y="130" width="120" height="30" as="geometry" />
        </mxCell>
        <mxCell id="O4BCsCqUHJFsde2Ogw4A-36" value="INFRA" style="text;html=1;align=center;verticalAlign=middle;resizable=0;points=[];autosize=1;strokeColor=none;fillColor=none;labelBackgroundColor=default;" vertex="1" parent="1">
          <mxGeometry x="445" y="134" width="60" height="30" as="geometry" />
        </mxCell>
        <mxCell id="O4BCsCqUHJFsde2Ogw4A-37" value="internet" style="text;html=1;align=center;verticalAlign=middle;resizable=0;points=[];autosize=1;strokeColor=none;fillColor=none;" vertex="1" parent="1">
          <mxGeometry x="418" y="70" width="60" height="30" as="geometry" />
        </mxCell>
        <mxCell id="O4BCsCqUHJFsde2Ogw4A-38" value="bluenet" style="text;html=1;align=center;verticalAlign=middle;resizable=0;points=[];autosize=1;strokeColor=none;fillColor=none;" vertex="1" parent="1">
          <mxGeometry x="524" y="142" width="60" height="30" as="geometry" />
        </mxCell>
        <mxCell id="O4BCsCqUHJFsde2Ogw4A-39" value="infranet2" style="text;html=1;align=center;verticalAlign=middle;resizable=0;points=[];autosize=1;strokeColor=none;fillColor=none;" vertex="1" parent="1">
          <mxGeometry x="357" y="142" width="70" height="30" as="geometry" />
        </mxCell>
        <mxCell id="O4BCsCqUHJFsde2Ogw4A-40" value="" style="shape=mxgraph.cisco.computers_and_peripherals.pc;sketch=0;html=1;pointerEvents=1;dashed=0;fillColor=#036897;strokeColor=#ffffff;strokeWidth=2;verticalLabelPosition=bottom;verticalAlign=top;align=center;outlineConnect=0;" vertex="1" parent="1">
          <mxGeometry x="110" y="350" width="78" height="70" as="geometry" />
        </mxCell>
        <mxCell id="O4BCsCqUHJFsde2Ogw4A-41" value="172.16.101.2/27" style="text;html=1;align=center;verticalAlign=middle;resizable=0;points=[];autosize=1;strokeColor=none;fillColor=none;" vertex="1" parent="1">
          <mxGeometry x="185" y="375" width="110" height="30" as="geometry" />
        </mxCell>
        <mxCell id="O4BCsCqUHJFsde2Ogw4A-42" value="&lt;div&gt;red-dmz-host-1&lt;/div&gt;&lt;div&gt;ports:TCP 22, 4444&lt;br&gt;&lt;/div&gt;" style="text;html=1;align=center;verticalAlign=middle;resizable=0;points=[];autosize=1;strokeColor=none;fillColor=none;labelBackgroundColor=default;" vertex="1" parent="1">
          <mxGeometry x="75" y="415" width="130" height="40" as="geometry" />
        </mxCell>
        <mxCell id="O4BCsCqUHJFsde2Ogw4A-43" value="" style="shape=mxgraph.cisco.routers.iad_router;sketch=0;html=1;pointerEvents=1;dashed=0;fillColor=#036897;strokeColor=#ffffff;strokeWidth=2;verticalLabelPosition=bottom;verticalAlign=top;align=center;outlineConnect=0;" vertex="1" parent="1">
          <mxGeometry x="731" y="348" width="78" height="53" as="geometry" />
        </mxCell>
        <mxCell id="O4BCsCqUHJFsde2Ogw4A-44" value="RED-IPS" style="text;html=1;align=center;verticalAlign=middle;resizable=0;points=[];autosize=1;strokeColor=none;fillColor=none;labelBackgroundColor=default;" vertex="1" parent="1">
          <mxGeometry x="735" y="373" width="70" height="30" as="geometry" />
        </mxCell>
        <mxCell id="O4BCsCqUHJFsde2Ogw4A-45" value="&lt;font style=&quot;font-size: 9px;&quot;&gt;eth0&lt;/font&gt;" style="text;html=1;align=center;verticalAlign=middle;resizable=0;points=[];autosize=1;strokeColor=none;fillColor=none;" vertex="1" parent="1">
          <mxGeometry x="695" y="350" width="40" height="30" as="geometry" />
        </mxCell>
        <mxCell id="O4BCsCqUHJFsde2Ogw4A-46" value="172.16.120.5/30" style="text;html=1;align=center;verticalAlign=middle;resizable=0;points=[];autosize=1;strokeColor=none;fillColor=none;" vertex="1" parent="1">
          <mxGeometry x="631" y="375" width="110" height="30" as="geometry" />
        </mxCell>
        <mxCell id="O4BCsCqUHJFsde2Ogw4A-47" value="" style="endArrow=none;html=1;rounded=0;exitX=1;exitY=0.5;exitDx=0;exitDy=0;exitPerimeter=0;" edge="1" parent="1">
          <mxGeometry width="50" height="50" relative="1" as="geometry">
            <mxPoint x="809" y="376.21" as="sourcePoint" />
            <mxPoint x="1026" y="376.21" as="targetPoint" />
          </mxGeometry>
        </mxCell>
        <mxCell id="O4BCsCqUHJFsde2Ogw4A-49" value="internet" style="text;html=1;align=center;verticalAlign=middle;resizable=0;points=[];autosize=1;strokeColor=none;fillColor=none;" vertex="1" parent="1">
          <mxGeometry x="656" y="387" width="60" height="30" as="geometry" />
        </mxCell>
        <mxCell id="O4BCsCqUHJFsde2Ogw4A-50" value="&lt;font style=&quot;font-size: 9px;&quot;&gt;eth1&lt;/font&gt;" style="text;html=1;align=center;verticalAlign=middle;resizable=0;points=[];autosize=1;strokeColor=none;fillColor=none;" vertex="1" parent="1">
          <mxGeometry x="802" y="351" width="40" height="30" as="geometry" />
        </mxCell>
        <mxCell id="O4BCsCqUHJFsde2Ogw4A-51" value="172.16.120.10/30" style="text;html=1;align=center;verticalAlign=middle;resizable=0;points=[];autosize=1;strokeColor=none;fillColor=none;" vertex="1" parent="1">
          <mxGeometry x="797" y="375" width="120" height="30" as="geometry" />
        </mxCell>
        <mxCell id="O4BCsCqUHJFsde2Ogw4A-52" value="rednet" style="text;html=1;align=center;verticalAlign=middle;resizable=0;points=[];autosize=1;strokeColor=none;fillColor=none;" vertex="1" parent="1">
          <mxGeometry x="820" y="387" width="60" height="30" as="geometry" />
        </mxCell>
        <mxCell id="O4BCsCqUHJFsde2Ogw4A-53" value="" style="shape=mxgraph.cisco.routers.iad_router;sketch=0;html=1;pointerEvents=1;dashed=0;fillColor=#036897;strokeColor=#ffffff;strokeWidth=2;verticalLabelPosition=bottom;verticalAlign=top;align=center;outlineConnect=0;" vertex="1" parent="1">
          <mxGeometry x="1026" y="349" width="78" height="53" as="geometry" />
        </mxCell>
        <mxCell id="O4BCsCqUHJFsde2Ogw4A-54" value="RED-POP" style="text;html=1;align=center;verticalAlign=middle;resizable=0;points=[];autosize=1;strokeColor=none;fillColor=none;labelBackgroundColor=default;" vertex="1" parent="1">
          <mxGeometry x="1025" y="374" width="80" height="30" as="geometry" />
        </mxCell>
        <mxCell id="O4BCsCqUHJFsde2Ogw4A-55" value="172.16.120.9/30" style="text;html=1;align=center;verticalAlign=middle;resizable=0;points=[];autosize=1;strokeColor=none;fillColor=none;" vertex="1" parent="1">
          <mxGeometry x="922" y="375" width="110" height="30" as="geometry" />
        </mxCell>
        <mxCell id="O4BCsCqUHJFsde2Ogw4A-56" value="&lt;font style=&quot;font-size: 9px;&quot;&gt;eth0&lt;/font&gt;" style="text;html=1;align=center;verticalAlign=middle;resizable=0;points=[];autosize=1;strokeColor=none;fillColor=none;" vertex="1" parent="1">
          <mxGeometry x="992" y="351" width="40" height="30" as="geometry" />
        </mxCell>
        <mxCell id="O4BCsCqUHJFsde2Ogw4A-57" value="internet" style="text;html=1;align=center;verticalAlign=middle;resizable=0;points=[];autosize=1;strokeColor=none;fillColor=none;" vertex="1" parent="1">
          <mxGeometry x="947" y="387" width="60" height="30" as="geometry" />
        </mxCell>
        <mxCell id="O4BCsCqUHJFsde2Ogw4A-58" value="" style="endArrow=none;html=1;rounded=0;exitX=1;exitY=0.5;exitDx=0;exitDy=0;exitPerimeter=0;" edge="1" parent="1">
          <mxGeometry width="50" height="50" relative="1" as="geometry">
            <mxPoint x="1104" y="376.21" as="sourcePoint" />
            <mxPoint x="1321" y="376.21" as="targetPoint" />
          </mxGeometry>
        </mxCell>
        <mxCell id="O4BCsCqUHJFsde2Ogw4A-59" value="" style="endArrow=none;html=1;rounded=0;entryX=0.5;entryY=0;entryDx=0;entryDy=0;entryPerimeter=0;" edge="1" parent="1">
          <mxGeometry width="50" height="50" relative="1" as="geometry">
            <mxPoint x="1064.71" y="401" as="sourcePoint" />
            <mxPoint x="1064.71" y="591" as="targetPoint" />
            <Array as="points">
              <mxPoint x="1064.71" y="541" />
              <mxPoint x="1064.71" y="561" />
            </Array>
          </mxGeometry>
        </mxCell>
        <mxCell id="O4BCsCqUHJFsde2Ogw4A-60" value="172.16.182.126/27" style="text;html=1;align=center;verticalAlign=middle;resizable=0;points=[];autosize=1;strokeColor=none;fillColor=none;" vertex="1" parent="1">
          <mxGeometry x="1060" y="415" width="120" height="30" as="geometry" />
        </mxCell>
        <mxCell id="O4BCsCqUHJFsde2Ogw4A-61" value="redhosts" style="text;html=1;align=center;verticalAlign=middle;resizable=0;points=[];autosize=1;strokeColor=none;fillColor=none;" vertex="1" parent="1">
          <mxGeometry x="1002" y="415" width="70" height="30" as="geometry" />
        </mxCell>
        <mxCell id="O4BCsCqUHJFsde2Ogw4A-62" value="&lt;font style=&quot;font-size: 9px;&quot;&gt;eth1&lt;/font&gt;" style="text;html=1;align=center;verticalAlign=middle;resizable=0;points=[];autosize=1;strokeColor=none;fillColor=none;" vertex="1" parent="1">
          <mxGeometry x="1060" y="395" width="40" height="30" as="geometry" />
        </mxCell>
        <mxCell id="O4BCsCqUHJFsde2Ogw4A-63" value="&lt;font style=&quot;font-size: 9px;&quot;&gt;eth2&lt;/font&gt;" style="text;html=1;align=center;verticalAlign=middle;resizable=0;points=[];autosize=1;strokeColor=none;fillColor=none;" vertex="1" parent="1">
          <mxGeometry x="1100" y="350" width="40" height="30" as="geometry" />
        </mxCell>
        <mxCell id="O4BCsCqUHJFsde2Ogw4A-64" value="172.16.140.6/30" style="text;html=1;align=center;verticalAlign=middle;resizable=0;points=[];autosize=1;strokeColor=none;fillColor=none;" vertex="1" parent="1">
          <mxGeometry x="1095" y="373" width="110" height="30" as="geometry" />
        </mxCell>
        <mxCell id="O4BCsCqUHJFsde2Ogw4A-65" value="redintdmz" style="text;html=1;align=center;verticalAlign=middle;resizable=0;points=[];autosize=1;strokeColor=none;fillColor=none;" vertex="1" parent="1">
          <mxGeometry x="1110" y="385" width="80" height="30" as="geometry" />
        </mxCell>
        <mxCell id="O4BCsCqUHJFsde2Ogw4A-66" value="" style="shape=mxgraph.cisco.routers.iad_router;sketch=0;html=1;pointerEvents=1;dashed=0;fillColor=#036897;strokeColor=#ffffff;strokeWidth=2;verticalLabelPosition=bottom;verticalAlign=top;align=center;outlineConnect=0;" vertex="1" parent="1">
          <mxGeometry x="1321" y="349" width="78" height="53" as="geometry" />
        </mxCell>
        <mxCell id="O4BCsCqUHJFsde2Ogw4A-67" value="RED-POP2" style="text;html=1;align=center;verticalAlign=middle;resizable=0;points=[];autosize=1;strokeColor=none;fillColor=none;labelBackgroundColor=default;" vertex="1" parent="1">
          <mxGeometry x="1320" y="374" width="80" height="30" as="geometry" />
        </mxCell>
        <mxCell id="O4BCsCqUHJFsde2Ogw4A-68" value="172.16.140.6/30" style="text;html=1;align=center;verticalAlign=middle;resizable=0;points=[];autosize=1;strokeColor=none;fillColor=none;" vertex="1" parent="1">
          <mxGeometry x="1220" y="373" width="110" height="30" as="geometry" />
        </mxCell>
        <mxCell id="O4BCsCqUHJFsde2Ogw4A-69" value="redintdmz" style="text;html=1;align=center;verticalAlign=middle;resizable=0;points=[];autosize=1;strokeColor=none;fillColor=none;" vertex="1" parent="1">
          <mxGeometry x="1235" y="385" width="80" height="30" as="geometry" />
        </mxCell>
        <mxCell id="O4BCsCqUHJFsde2Ogw4A-70" value="&lt;font style=&quot;font-size: 9px;&quot;&gt;eth0&lt;/font&gt;" style="text;html=1;align=center;verticalAlign=middle;resizable=0;points=[];autosize=1;strokeColor=none;fillColor=none;" vertex="1" parent="1">
          <mxGeometry x="1287" y="351" width="40" height="30" as="geometry" />
        </mxCell>
        <mxCell id="O4BCsCqUHJFsde2Ogw4A-72" value="" style="endArrow=none;html=1;rounded=0;" edge="1" parent="1">
          <mxGeometry width="50" height="50" relative="1" as="geometry">
            <mxPoint x="1359.71" y="401" as="sourcePoint" />
            <mxPoint x="1360" y="782.4" as="targetPoint" />
            <Array as="points">
              <mxPoint x="1359.71" y="541" />
              <mxPoint x="1359.71" y="561" />
            </Array>
          </mxGeometry>
        </mxCell>
        <mxCell id="O4BCsCqUHJFsde2Ogw4A-73" value="172.16.140.62/27" style="text;html=1;align=center;verticalAlign=middle;resizable=0;points=[];autosize=1;strokeColor=none;fillColor=none;" vertex="1" parent="1">
          <mxGeometry x="1352" y="415" width="120" height="30" as="geometry" />
        </mxCell>
        <mxCell id="O4BCsCqUHJFsde2Ogw4A-74" value="redintdmz2" style="text;html=1;align=center;verticalAlign=middle;resizable=0;points=[];autosize=1;strokeColor=none;fillColor=none;" vertex="1" parent="1">
          <mxGeometry x="1285" y="415" width="80" height="30" as="geometry" />
        </mxCell>
        <mxCell id="O4BCsCqUHJFsde2Ogw4A-75" value="&lt;font style=&quot;font-size: 9px;&quot;&gt;eth1&lt;/font&gt;" style="text;html=1;align=center;verticalAlign=middle;resizable=0;points=[];autosize=1;strokeColor=none;fillColor=none;" vertex="1" parent="1">
          <mxGeometry x="1355" y="395" width="40" height="30" as="geometry" />
        </mxCell>
        <mxCell id="O4BCsCqUHJFsde2Ogw4A-78" value="" style="endArrow=none;html=1;rounded=0;" edge="1" parent="1">
          <mxGeometry width="50" height="50" relative="1" as="geometry">
            <mxPoint x="840" y="590" as="sourcePoint" />
            <mxPoint x="1240" y="590" as="targetPoint" />
          </mxGeometry>
        </mxCell>
        <mxCell id="O4BCsCqUHJFsde2Ogw4A-80" value="" style="shape=mxgraph.cisco.computers_and_peripherals.pc;sketch=0;html=1;pointerEvents=1;dashed=0;fillColor=#036897;strokeColor=#ffffff;strokeWidth=2;verticalLabelPosition=bottom;verticalAlign=top;align=center;outlineConnect=0;" vertex="1" parent="1">
          <mxGeometry x="855" y="600" width="78" height="70" as="geometry" />
        </mxCell>
        <mxCell id="O4BCsCqUHJFsde2Ogw4A-81" value="&lt;div&gt;172.16.182.106&lt;br&gt;&lt;/div&gt;&lt;div&gt;red-host-1&lt;br&gt;&lt;/div&gt;&lt;div&gt;ports:TCP 22, 3389&lt;br&gt;&lt;/div&gt;" style="text;html=1;align=center;verticalAlign=middle;resizable=0;points=[];autosize=1;strokeColor=none;fillColor=none;labelBackgroundColor=default;" vertex="1" parent="1">
          <mxGeometry x="820" y="654" width="130" height="60" as="geometry" />
        </mxCell>
        <mxCell id="O4BCsCqUHJFsde2Ogw4A-84" value="" style="shape=mxgraph.cisco.computers_and_peripherals.pc;sketch=0;html=1;pointerEvents=1;dashed=0;fillColor=#036897;strokeColor=#ffffff;strokeWidth=2;verticalLabelPosition=bottom;verticalAlign=top;align=center;outlineConnect=0;" vertex="1" parent="1">
          <mxGeometry x="967" y="600" width="78" height="70" as="geometry" />
        </mxCell>
        <mxCell id="O4BCsCqUHJFsde2Ogw4A-85" value="&lt;div&gt;172.16.182.110&lt;br&gt;&lt;/div&gt;&lt;div&gt;&lt;br&gt;&lt;/div&gt;&lt;div&gt;ports:TCP 22, 80&lt;br&gt;&lt;/div&gt;" style="text;html=1;align=center;verticalAlign=middle;resizable=0;points=[];autosize=1;strokeColor=none;fillColor=none;labelBackgroundColor=default;" vertex="1" parent="1">
          <mxGeometry x="942" y="654" width="110" height="60" as="geometry" />
        </mxCell>
        <mxCell id="O4BCsCqUHJFsde2Ogw4A-86" value="" style="shape=mxgraph.cisco.computers_and_peripherals.pc;sketch=0;html=1;pointerEvents=1;dashed=0;fillColor=#036897;strokeColor=#ffffff;strokeWidth=2;verticalLabelPosition=bottom;verticalAlign=top;align=center;outlineConnect=0;" vertex="1" parent="1">
          <mxGeometry x="1075" y="600" width="78" height="70" as="geometry" />
        </mxCell>
        <mxCell id="O4BCsCqUHJFsde2Ogw4A-88" value="" style="shape=mxgraph.cisco.computers_and_peripherals.pc;sketch=0;html=1;pointerEvents=1;dashed=0;fillColor=#036897;strokeColor=#ffffff;strokeWidth=2;verticalLabelPosition=bottom;verticalAlign=top;align=center;outlineConnect=0;" vertex="1" parent="1">
          <mxGeometry x="1170" y="600" width="78" height="70" as="geometry" />
        </mxCell>
        <mxCell id="O4BCsCqUHJFsde2Ogw4A-89" value="&lt;div&gt;172.16.182.118&lt;br&gt;&lt;/div&gt;&lt;div&gt;&lt;br&gt;&lt;/div&gt;&lt;div&gt;ports:TCP 22, 4444&lt;br&gt;&lt;/div&gt;" style="text;html=1;align=center;verticalAlign=middle;resizable=0;points=[];autosize=1;strokeColor=none;fillColor=none;labelBackgroundColor=default;" vertex="1" parent="1">
          <mxGeometry x="1142" y="654" width="130" height="60" as="geometry" />
        </mxCell>
        <mxCell id="O4BCsCqUHJFsde2Ogw4A-90" value="&lt;div&gt;172.16.182.114&lt;br&gt;&lt;/div&gt;&lt;div&gt;&lt;br&gt;&lt;/div&gt;&lt;div&gt;ports:TCP 22&lt;br&gt;&lt;/div&gt;" style="text;html=1;align=center;verticalAlign=middle;resizable=0;points=[];autosize=1;strokeColor=none;fillColor=none;labelBackgroundColor=default;" vertex="1" parent="1">
          <mxGeometry x="1047" y="654" width="110" height="60" as="geometry" />
        </mxCell>
        <mxCell id="O4BCsCqUHJFsde2Ogw4A-91" value="" style="endArrow=none;html=1;rounded=0;" edge="1" parent="1">
          <mxGeometry width="50" height="50" relative="1" as="geometry">
            <mxPoint x="1149" y="782" as="sourcePoint" />
            <mxPoint x="1549" y="782" as="targetPoint" />
          </mxGeometry>
        </mxCell>
      </root>
    </mxGraphModel>
  </diagram>
</mxfile>
